<?xml version="1.0" standalone="no"?><!DOCTYPE svg PUBLIC "-//W3C//DTD SVG 1.1//EN" "http://www.w3.org/Graphics/SVG/1.1/DTD/svg11.dtd"><svg t="1646922830537" class="icon" viewBox="0 0 1024 1024" version="1.1" xmlns="http://www.w3.org/2000/svg" p-id="2997" xmlns:xlink="http://www.w3.org/1999/xlink" width="200" height="200"><defs><style type="text/css"></style></defs><path d="M896 149.333333c-35.285333 0-64 28.714667-64 64s-28.714667 64-64 64-64-28.714667-64-64c0-70.592-57.408-128-128-128s-128 57.408-128 128v85.333334h-64a21.333333 21.333333 0 0 0-21.333333 21.333333v46.549333C234.453333 418.474667 149.333333 543.616 149.333333 682.666667c0 188.202667 153.130667 341.333333 341.333334 341.333333s341.333333-153.130667 341.333333-341.333333c0-139.050667-85.12-264.192-213.333333-316.117334V320a21.333333 21.333333 0 0 0-21.333334-21.333333h-106.666666v-85.333334c0-47.061333 38.272-85.333333 85.333333-85.333333s85.333333 38.272 85.333333 85.333333c0 58.816 47.850667 106.666667 106.666667 106.666667s106.666667-47.850667 106.666667-106.666667c0-11.754667 9.557333-21.333333 21.333333-21.333333a21.333333 21.333333 0 1 0 0-42.666667zM590.208 401.386667C709.312 443.562667 789.333333 556.586667 789.333333 682.666667c0 164.693333-133.973333 298.666667-298.666666 298.666666S192 847.36 192 682.666667c0-126.08 80.021333-239.104 199.125333-281.28a21.333333 21.333333 0 0 0 14.208-20.117334V341.333333h170.666667v39.936a21.333333 21.333333 0 0 0 14.208 20.117334z" fill="#010101" p-id="2998"></path><path d="M344.298667 472.661333a254.272 254.272 0 0 0-105.642667 165.013334 254.378667 254.378667 0 0 0 42.005333 191.381333 21.269333 21.269333 0 0 0 29.696 5.312 21.333333 21.333333 0 0 0 5.312-29.696c-67.285333-96.512-43.477333-229.738667 53.013334-297.002667a21.333333 21.333333 0 0 0-24.384-35.008z" fill="#010101" p-id="2999"></path></svg>